<svg xmlns="http://www.w3.org/2000/svg" viewBox="0 0 63.01 62.52"><defs><style>.cls-1{fill:#ff2c2c;}.cls-2{fill:#353535;}</style></defs><title>icon</title><g id="Calque_2" data-name="Calque 2"><g id="Calque_1-2" data-name="Calque 1"><path class="cls-1" d="M31.87,55.52a5.59,5.59,0,0,1-4.1-1.8l-.54-.57a2.86,2.86,0,0,0-4.19,0,5.61,5.61,0,0,1-8.3.1,2.86,2.86,0,0,0-4.19,0l-.35.37a5.59,5.59,0,0,1-8.2,0L4,51.5a2.93,2.93,0,0,0,4.2,0l.34-.37a5.6,5.6,0,0,1,8.21,0,2.84,2.84,0,0,0,4.19,0,5.62,5.62,0,0,1,8.3-.1l.53.57a2.86,2.86,0,0,0,4.19,0l.49-.52a5.59,5.59,0,0,1,8.2,0l.64.68-2,2.12-.64-.68a2.92,2.92,0,0,0-4.19,0l-.49.52A5.61,5.61,0,0,1,31.87,55.52Z"/><path class="cls-1" d="M31.87,62.13a5.59,5.59,0,0,1-4.1-1.8l-.54-.57a2.85,2.85,0,0,0-4.19,0,5.61,5.61,0,0,1-8.3.09,2.86,2.86,0,0,0-4.19,0l-.35.37c-2.26,2.4-5.62-1.2-7.88-3.59L4,58.11a2.93,2.93,0,0,0,4.2,0l.34-.37a5.6,5.6,0,0,1,8.21,0,2.84,2.84,0,0,0,4.19,0,5.62,5.62,0,0,1,8.3-.1l.53.57a2.86,2.86,0,0,0,4.19,0l.49-.52a5.59,5.59,0,0,1,8.2,0h0l-2,2.12h0a2.92,2.92,0,0,0-4.19,0l-.49.52A5.61,5.61,0,0,1,31.87,62.13Z"/><path class="cls-1" d="M31.87,48.91a5.59,5.59,0,0,1-4.1-1.8l-.54-.56a2.84,2.84,0,0,0-4.19,0,5.62,5.62,0,0,1-8.3.1,2.84,2.84,0,0,0-4.19,0L10.2,47A5.57,5.57,0,0,1,2,47l2-2.12a2.87,2.87,0,0,0,4.2,0l.34-.37a5.6,5.6,0,0,1,8.21,0,2.91,2.91,0,0,0,4.19,0,5.62,5.62,0,0,1,8.3-.1l.53.57A2.86,2.86,0,0,0,34,45l.49-.52a5.57,5.57,0,0,1,8.2,0l.64.68-2,2.12-.64-.67a2.84,2.84,0,0,0-4.19,0l-.49.51A5.61,5.61,0,0,1,31.87,48.91Z"/><path class="cls-1" d="M31.87,42.3a5.59,5.59,0,0,1-4.1-1.8l-.54-.56a2.84,2.84,0,0,0-4.19,0,5.62,5.62,0,0,1-8.3.1,2.84,2.84,0,0,0-4.19,0l-.35.36a5.57,5.57,0,0,1-8.2,0l2-2.12a2.87,2.87,0,0,0,4.2,0l.34-.37a5.6,5.6,0,0,1,8.21,0,2.91,2.91,0,0,0,4.19,0,5.62,5.62,0,0,1,8.3-.1l.53.57a2.86,2.86,0,0,0,4.19,0l.49-.52a5.57,5.57,0,0,1,8.2,0l.64.68-2,2.12L40.65,40a2.84,2.84,0,0,0-4.19,0L36,40.5A5.61,5.61,0,0,1,31.87,42.3Z"/><path class="cls-1" d="M31.87,35.69a5.59,5.59,0,0,1-4.1-1.8l-.54-.56a2.84,2.84,0,0,0-4.19,0,5.62,5.62,0,0,1-8.3.1,2.84,2.84,0,0,0-4.19,0l-.35.36a5.57,5.57,0,0,1-8.2,0l2-2.12a2.87,2.87,0,0,0,4.2,0l.34-.37a5.6,5.6,0,0,1,8.21,0,2.91,2.91,0,0,0,4.19,0,5.62,5.62,0,0,1,8.3-.1l.53.57a2.86,2.86,0,0,0,4.19,0l.49-.52a5.57,5.57,0,0,1,8.2,0l.64.68-2,2.12-.64-.67a2.84,2.84,0,0,0-4.19,0l-.49.51A5.61,5.61,0,0,1,31.87,35.69Z"/><path class="cls-2" d="M57.44,22.46a6.49,6.49,0,0,0,5-6.55c0-4.29-3-7.28-8-7.28H45.29V2a2,2,0,0,0-4,0V51.57a7,7,0,0,1-6.95,7H11a7,7,0,0,1-6.95-7V2A2,2,0,0,0,0,2V51.57a11,11,0,0,0,11,11H34.34a11,11,0,0,0,10.95-11V37.19h9.46C60,37.19,63,34.07,63,29.48,63,26.06,60.48,22.93,57.44,22.46ZM53.85,11.79c3.21,0,4.92,2.06,4.92,4.63S57.06,21,53.85,21H45.29V11.79ZM54,34H45.29V24.17H54c3.51,0,5.31,2.32,5.31,4.93C59.33,32.14,57.36,34,54,34Z"/><path class="cls-2" d="M12.25,46.52a2,2,0,0,0,2-2V3.31a2,2,0,0,0-4,0V44.52A2,2,0,0,0,12.25,46.52Z"/><path class="cls-2" d="M22.65,46.52a2,2,0,0,0,2-2V3.31a2,2,0,1,0-4,0V44.52A2,2,0,0,0,22.65,46.52Z"/><path class="cls-2" d="M33,46.52a2,2,0,0,0,2-2V3.31a2,2,0,0,0-4,0V44.52A2,2,0,0,0,33,46.52Z"/></g></g></svg>