<svg xmlns="http://www.w3.org/2000/svg" viewBox="0 0 672.28 62.52"><defs><style>.cls-1{fill:#353535;}.cls-2{fill:#ff2c2c;}</style></defs><title>logo</title><g id="Calque_2" data-name="Calque 2"><g id="Calque_1-2" data-name="Calque 1"><path class="cls-1" d="M127.57,60.26c-5.52,0-13.36-.56-18.16-.56h-3.6c-10.64,0-15.28.56-17.12.56-.48,0-.65-.24-.65-1.68s.17-1.68.65-1.76l3.52-.56c.79-.16,1-.32,1-1.12V6.66c0-.8-.17-1-1-1.12L88.69,5C88.21,4.9,88,4.66,88,3.22s.17-1.68.65-1.68c1.84,0,7,.56,17.6.56h3.12c5.6,0,10.72-.56,17-.56,12,0,18.64,5.52,18.64,12.56,0,6.48-4.48,11.84-13.44,13.36v.32c10.88.8,17.76,6.88,17.76,16.24C149.33,54.42,140.61,60.26,127.57,60.26Zm-12.4-55h-.32c-.8,0-1,.16-1,1V28.34h1.84c4.8,0,7.44-4.56,7.44-10.24C123.17,10.9,120.37,5.3,115.17,5.3Zm-.08,26.64h-1.2V50.5c0,2.4.48,3.68,1.44,4.64a6.55,6.55,0,0,0,4.24,1.36c4.48,0,7-3.44,7-9.36C126.61,37.7,120.61,31.94,115.09,31.94Z"/><path class="cls-1" d="M176.12,61C164.2,61,155,52.82,155,40.18c0-12.88,9.68-21.44,23.92-21.44,11.92,0,18.41,5.76,18.41,13.44a8.45,8.45,0,0,1-.16,2.08.84.84,0,0,1-.88.56c-6.33.32-15.45.48-23,.24a25.35,25.35,0,0,0,5.6,10.08c3,3,5.2,3.84,8.08,3.84a11.14,11.14,0,0,0,7.77-3.28c.72-.64,2.72.88,2.39,1.68C193.8,55.54,184.76,61,176.12,61ZM172.76,33.3l2.56-.32c3.68-.4,5.36-3,5.36-7.12,0-3-1.28-4.64-3.51-4.64-2.49,0-5,2.24-5,7A27.77,27.77,0,0,0,172.76,33.3Z"/><path class="cls-1" d="M222.36,61c-11.92,0-21.12-8.16-21.12-20.8,0-12.88,9.68-21.44,23.92-21.44,11.92,0,18.4,5.76,18.4,13.44a8.45,8.45,0,0,1-.16,2.08.83.83,0,0,1-.88.56c-6.32.32-15.44.48-23,.24a25.35,25.35,0,0,0,5.6,10.08c3,3,5.2,3.84,8.08,3.84a11.14,11.14,0,0,0,7.76-3.28c.72-.64,2.72.88,2.4,1.68C240,55.54,231,61,222.36,61ZM219,33.3l2.56-.32c3.68-.4,5.36-3,5.36-7.12,0-3-1.28-4.64-3.52-4.64-2.48,0-5,2.24-5,7A27.77,27.77,0,0,0,219,33.3Z"/><path class="cls-1" d="M275.48,60.26c-1.84,0-7-.56-15.28-.56-5.84,0-11.12.56-13,.56-.48,0-.64-.16-.64-1.68s.16-1.68.64-1.76l2.72-.56c.8-.16,1-.24,1-1V34.1c0-.8-.16-.88-1-1l-2.72-.48c-.48-.08-.64-.24-.64-1.52s.16-1.36.64-1.52c6.56-2.56,12.8-6.48,19.2-11a1.06,1.06,0,0,1,.64-.24c.56,0,2.08.64,2.08,1.2,0,1.28-.32,7.76-.32,13,2.4-7.76,6.88-13.68,11.76-13.68s7,3.6,7,8c0,7.6-4.4,11.36-8.16,11.36a7.44,7.44,0,0,1-4.4-1.68c-1.92-1.36-3.52-2.08-4.56-2.08a1.82,1.82,0,0,0-1,.24V55.22c0,.8.16,1,1,1l5.12.56c.48.08.64.32.64,1.76S276,60.26,275.48,60.26Z"/><path class="cls-1" d="M307.08,58.58c0-1.44.16-1.68.64-1.76l3.52-.56c.8-.16,1-.32,1-1.12V6.66c0-.8-.16-1-1-1.12L307.72,5c-.48-.08-.64-.32-.64-1.76s.16-1.68.64-1.68c2.24,0,11,.56,16.8.56h5.92c5.28,0,7-.32,12.48-.32,15.52,0,24.32,7.36,24.32,18.24,0,11-8.48,19.12-21.44,19.12a25.53,25.53,0,0,1-12.88-3.52V55.14c0,.8.16,1,1,1.12l5.12.56c.48.08.64.32.64,1.76s-.16,1.68-.64,1.68c-1.84,0-9.76-.56-16.4-.56s-13,.56-14.88.56C307.24,60.26,307.08,60,307.08,58.58ZM334.36,5.3h-.48c-.8,0-1,.16-1,1V32a10.91,10.91,0,0,0,2.88.32c4.64,0,9.2-4.4,9.2-14.24C345,9.78,340.12,5.3,334.36,5.3Z"/><path class="cls-1" d="M397.16,60.26c-1.84,0-7-.56-15.28-.56-5.84,0-11.12.56-13,.56-.48,0-.64-.16-.64-1.68s.16-1.68.64-1.76l2.72-.56c.8-.16,1-.24,1-1V34.1c0-.8-.16-.88-1-1l-2.72-.48c-.48-.08-.64-.24-.64-1.52s.16-1.36.64-1.52c6.56-2.56,12.8-6.48,19.2-11a1.06,1.06,0,0,1,.64-.24c.56,0,2.08.64,2.08,1.2,0,1.28-.32,7.76-.32,13,2.4-7.76,6.88-13.68,11.76-13.68s7,3.6,7,8c0,7.6-4.4,11.36-8.16,11.36a7.44,7.44,0,0,1-4.4-1.68c-1.92-1.36-3.52-2.08-4.56-2.08a1.82,1.82,0,0,0-1,.24V55.22c0,.8.16,1,1,1l5.12.56c.48.08.64.32.64,1.76S397.64,60.26,397.16,60.26Z"/><path class="cls-1" d="M432,61c-11.92,0-21.12-8.16-21.12-20.8,0-12.88,9.68-21.44,23.92-21.44,11.92,0,18.4,5.76,18.4,13.44a8.45,8.45,0,0,1-.16,2.08.83.83,0,0,1-.88.56c-6.32.32-15.44.48-23,.24a25.35,25.35,0,0,0,5.6,10.08c3,3,5.2,3.84,8.08,3.84a11.14,11.14,0,0,0,7.76-3.28c.72-.64,2.72.88,2.4,1.68C449.72,55.54,440.68,61,432,61ZM428.68,33.3l2.56-.32c3.68-.4,5.36-3,5.36-7.12,0-3-1.28-4.64-3.52-4.64-2.48,0-5,2.24-5,7A27.77,27.77,0,0,0,428.68,33.3Z"/><path class="cls-1" d="M459.32,44.9c1.52,0,1.76.16,2,.8a73.2,73.2,0,0,0,4.24,9.36,5.7,5.7,0,0,0,5.52,3c3.52,0,5.6-1.76,5.6-4.72s-1.52-4.8-7.2-6.48c-9.76-2.88-12.16-7.36-12.16-14.24,0-7.92,7.12-14.32,20.16-14.32a68.64,68.64,0,0,1,8.88.72c1.6.24,1.76.4,1.76,2v9.52c0,.64-.16.8-1.68.8s-1.76-.16-2-.8c-1.12-2.88-1.68-4.32-2.48-6.32s-2.16-3-4.8-3-4.8,1.12-4.8,4.08c0,2.64,1.28,4,6.64,5.92,9,3.2,11.92,7.92,11.92,14,0,9.36-7.36,15.76-20.16,15.76a38.09,38.09,0,0,1-12.24-1.84c-1.6-.48-1.76-.64-1.76-2.24,0-3,.4-7.52.8-11.2C457.64,45.06,457.88,44.9,459.32,44.9Z"/><path class="cls-1" d="M496.76,44.9c1.52,0,1.76.16,2,.8A73.2,73.2,0,0,0,503,55.06a5.7,5.7,0,0,0,5.52,3c3.52,0,5.6-1.76,5.6-4.72s-1.52-4.8-7.2-6.48c-9.76-2.88-12.16-7.36-12.16-14.24,0-7.92,7.12-14.32,20.16-14.32a68.64,68.64,0,0,1,8.88.72c1.6.24,1.76.4,1.76,2v9.52c0,.64-.16.8-1.68.8s-1.76-.16-2-.8c-1.12-2.88-1.68-4.32-2.48-6.32s-2.16-3-4.8-3-4.8,1.12-4.8,4.08c0,2.64,1.28,4,6.64,5.92,9,3.2,11.92,7.92,11.92,14C528.36,54.58,521,61,508.2,61A38.09,38.09,0,0,1,496,59.14c-1.6-.48-1.76-.64-1.76-2.24,0-3,.4-7.52.8-11.2C495.08,45.06,495.32,44.9,496.76,44.9Z"/><path class="cls-1" d="M562.84,51.14c-2.08,4.8-7.2,9.84-14.32,9.84-8.4,0-13.6-5.36-13.6-14V24.5c0-.8-.16-1-1-1.12l-2.72-.64c-.48-.08-.64-.32-.64-1.68s.24-1.84.72-1.84c7-.16,21-.32,21.52-.32a1.36,1.36,0,0,1,1.2,1.2c0,1.36-.64,5.92-.64,15.76V40c0,7.44,1.76,10.08,7.12,10.08a5.85,5.85,0,0,0,1.76-.24V24.5c0-.8-.16-1-1-1.12l-2.72-.64c-.48-.08-.64-.32-.64-1.68s.24-1.84.72-1.84c7-.16,21-.32,21.52-.32a1.36,1.36,0,0,1,1.2,1.2c0,1.36-.64,5.92-.64,15.76V51.62c0,.8.16,1,1,1.12l2.72.64c.48.08.64.32.64,1.68s-.16,1.52-.64,1.6c-4.8,1-11.2,2.48-17.2,4.24-.64.16-2.56-.32-2.8-1.12A53.86,53.86,0,0,1,562.84,51.14Z"/><path class="cls-1" d="M616.2,60.26c-1.84,0-7-.56-15.28-.56-5.84,0-11.12.56-13,.56-.48,0-.64-.16-.64-1.68s.16-1.68.64-1.76l2.72-.56c.8-.16,1-.24,1-1V34.1c0-.8-.16-.88-1-1L588,32.58c-.48-.08-.64-.24-.64-1.52s.16-1.36.64-1.52c6.56-2.56,12.8-6.48,19.2-11a1.06,1.06,0,0,1,.64-.24c.56,0,2.08.64,2.08,1.2,0,1.28-.32,7.76-.32,13,2.4-7.76,6.88-13.68,11.76-13.68s7,3.6,7,8c0,7.6-4.4,11.36-8.16,11.36a7.44,7.44,0,0,1-4.4-1.68c-1.92-1.36-3.52-2.08-4.56-2.08a1.82,1.82,0,0,0-1,.24V55.22c0,.8.16,1,1,1l5.12.56c.48.08.64.32.64,1.76S616.68,60.26,616.2,60.26Z"/><path class="cls-1" d="M651.08,61C639.16,61,630,52.82,630,40.18c0-12.88,9.68-21.44,23.92-21.44,11.92,0,18.4,5.76,18.4,13.44a8.45,8.45,0,0,1-.16,2.08.83.83,0,0,1-.88.56c-6.32.32-15.44.48-23,.24a25.35,25.35,0,0,0,5.6,10.08c3,3,5.2,3.84,8.08,3.84a11.14,11.14,0,0,0,7.76-3.28c.72-.64,2.72.88,2.4,1.68C668.76,55.54,659.72,61,651.08,61ZM647.72,33.3l2.56-.32c3.68-.4,5.36-3,5.36-7.12,0-3-1.28-4.64-3.52-4.64-2.48,0-5,2.24-5,7A27.77,27.77,0,0,0,647.72,33.3Z"/><path class="cls-2" d="M31.87,55.52a5.59,5.59,0,0,1-4.1-1.8l-.54-.57a2.86,2.86,0,0,0-4.19,0,5.61,5.61,0,0,1-8.3.1,2.86,2.86,0,0,0-4.19,0l-.35.37a5.59,5.59,0,0,1-8.2,0L4,51.5a2.93,2.93,0,0,0,4.2,0l.34-.37a5.6,5.6,0,0,1,8.21,0,2.84,2.84,0,0,0,4.19,0,5.62,5.62,0,0,1,8.3-.1l.53.57a2.86,2.86,0,0,0,4.19,0l.49-.52a5.59,5.59,0,0,1,8.2,0l.64.68-2,2.12-.64-.68a2.92,2.92,0,0,0-4.19,0l-.49.52A5.61,5.61,0,0,1,31.87,55.52Z"/><path class="cls-2" d="M31.87,62.13a5.59,5.59,0,0,1-4.1-1.8l-.54-.57a2.85,2.85,0,0,0-4.19,0,5.61,5.61,0,0,1-8.3.09,2.86,2.86,0,0,0-4.19,0l-.35.37c-2.26,2.4-5.62-1.2-7.88-3.59L4,58.11a2.93,2.93,0,0,0,4.2,0l.34-.37a5.6,5.6,0,0,1,8.21,0,2.84,2.84,0,0,0,4.19,0,5.62,5.62,0,0,1,8.3-.1l.53.57a2.86,2.86,0,0,0,4.19,0l.49-.52a5.59,5.59,0,0,1,8.2,0h0l-2,2.12h0a2.92,2.92,0,0,0-4.19,0l-.49.52A5.61,5.61,0,0,1,31.87,62.13Z"/><path class="cls-2" d="M31.87,48.91a5.59,5.59,0,0,1-4.1-1.8l-.54-.56a2.84,2.84,0,0,0-4.19,0,5.62,5.62,0,0,1-8.3.1,2.84,2.84,0,0,0-4.19,0L10.2,47A5.57,5.57,0,0,1,2,47l2-2.12a2.87,2.87,0,0,0,4.2,0l.34-.37a5.6,5.6,0,0,1,8.21,0,2.91,2.91,0,0,0,4.19,0,5.62,5.62,0,0,1,8.3-.1l.53.57A2.86,2.86,0,0,0,34,45l.49-.52a5.57,5.57,0,0,1,8.2,0l.64.68-2,2.12-.64-.67a2.84,2.84,0,0,0-4.19,0l-.49.51A5.61,5.61,0,0,1,31.87,48.91Z"/><path class="cls-2" d="M31.87,42.3a5.59,5.59,0,0,1-4.1-1.8l-.54-.56a2.84,2.84,0,0,0-4.19,0,5.62,5.62,0,0,1-8.3.1,2.84,2.84,0,0,0-4.19,0l-.35.36a5.57,5.57,0,0,1-8.2,0l2-2.12a2.87,2.87,0,0,0,4.2,0l.34-.37a5.6,5.6,0,0,1,8.21,0,2.91,2.91,0,0,0,4.19,0,5.62,5.62,0,0,1,8.3-.1l.53.57a2.86,2.86,0,0,0,4.19,0l.49-.52a5.57,5.57,0,0,1,8.2,0l.64.68-2,2.12L40.65,40a2.84,2.84,0,0,0-4.19,0L36,40.5A5.61,5.61,0,0,1,31.87,42.3Z"/><path class="cls-2" d="M31.87,35.69a5.59,5.59,0,0,1-4.1-1.8l-.54-.56a2.84,2.84,0,0,0-4.19,0,5.62,5.62,0,0,1-8.3.1,2.84,2.84,0,0,0-4.19,0l-.35.36a5.57,5.57,0,0,1-8.2,0l2-2.12a2.87,2.87,0,0,0,4.2,0l.34-.37a5.6,5.6,0,0,1,8.21,0,2.91,2.91,0,0,0,4.19,0,5.62,5.62,0,0,1,8.3-.1l.53.57a2.86,2.86,0,0,0,4.19,0l.49-.52a5.57,5.57,0,0,1,8.2,0l.64.68-2,2.12-.64-.67a2.84,2.84,0,0,0-4.19,0l-.49.51A5.61,5.61,0,0,1,31.87,35.69Z"/><path class="cls-1" d="M57.44,22.46a6.49,6.49,0,0,0,5-6.55c0-4.29-3-7.28-8-7.28H45.29V2a2,2,0,0,0-4,0V51.57a7,7,0,0,1-6.95,7H11a7,7,0,0,1-6.95-7V2A2,2,0,0,0,0,2V51.57a11,11,0,0,0,11,11H34.34a11,11,0,0,0,10.95-11V37.19h9.46C60,37.19,63,34.07,63,29.48,63,26.06,60.48,22.93,57.44,22.46ZM53.85,11.79c3.21,0,4.92,2.06,4.92,4.63S57.06,21,53.85,21H45.29V11.79ZM54,34H45.29V24.17H54c3.51,0,5.31,2.32,5.31,4.93C59.33,32.14,57.36,34,54,34Z"/><path class="cls-1" d="M12.25,46.52a2,2,0,0,0,2-2V3.31a2,2,0,0,0-4,0V44.52A2,2,0,0,0,12.25,46.52Z"/><path class="cls-1" d="M22.65,46.52a2,2,0,0,0,2-2V3.31a2,2,0,1,0-4,0V44.52A2,2,0,0,0,22.65,46.52Z"/><path class="cls-1" d="M33,46.52a2,2,0,0,0,2-2V3.31a2,2,0,0,0-4,0V44.52A2,2,0,0,0,33,46.52Z"/></g></g></svg>