<svg xmlns="http://www.w3.org/2000/svg" viewBox="0 0 21.273 20.511">
  <defs>
    <style>
      .cls-1 {
        fill: #ff2c2c;
      }
    </style>
  </defs>
  <g id="Groupe_19" data-name="Groupe 19" transform="translate(0)">
    <g id="Groupe_16" data-name="Groupe 16" transform="translate(0 0)">
      <path id="star_1_" class="cls-1" d="M21.127,7.742A1.543,1.543,0,0,0,19.92,6.736l-5.53-.8L11.977.955a1.587,1.587,0,0,0-2.815,0L6.749,5.932l-5.53.8A1.472,1.472,0,0,0,.012,7.742,1.4,1.4,0,0,0,.364,9.25l4.072,4.022-.9,5.631a1.425,1.425,0,0,0,.654,1.458,1.372,1.372,0,0,0,.9.251,1.419,1.419,0,0,0,.754-.2L10.67,17.8,15.5,20.41a2.107,2.107,0,0,0,.754.2,2.049,2.049,0,0,0,.9-.251,1.427,1.427,0,0,0,.6-1.458L16.8,13.272,20.876,9.25A1.77,1.77,0,0,0,21.127,7.742ZM15.6,12.216a1.4,1.4,0,0,0-.4,1.307l.955,5.631-4.826-2.614a2.107,2.107,0,0,0-.754-.2,1.419,1.419,0,0,0-.754.2L4.989,19.154l.955-5.631a1.583,1.583,0,0,0-.4-1.307L1.47,8.194,7,7.39a1.465,1.465,0,0,0,1.156-.855L10.57,1.558l2.413,4.977a1.577,1.577,0,0,0,1.156.855l5.53.8Z" transform="translate(0.076 -0.1)"/>
    </g>
    <path id="Tracé_9" data-name="Tracé 9" class="cls-1" d="M11.351,1.4,8.234,7.383,1.9,8.338l4.173,5.279-.7,6.787,6.184-2.614,5.681,2.765-.5-6.536L21.305,8.79,14.77,7.081Z" transform="translate(-0.906 -0.746)"/>
  </g>
</svg>
